inDegrees=yes
name=ik_lifting_orientations
DataType=double
version=3
OpenSimVersion=4.5-2024-01-10-34fd6af
endheader
time	pelvis_tilt	pelvis_list	pelvis_rotation	pelvis_tx	pelvis_ty	pelvis_tz	hip_flexion_r	hip_adduction_r	hip_rotation_r	knee_angle_r	knee_angle_r_beta	ankle_angle_r	subtalar_angle_r	mtp_angle_r	hip_flexion_l	hip_adduction_l	hip_rotation_l	knee_angle_l	knee_angle_l_beta	ankle_angle_l	subtalar_angle_l	mtp_angle_l	lumbar_extension	lumbar_bending	lumbar_rotation	arm_flex_r	arm_add_r	arm_rot_r	elbow_flex_r	pro_sup_r	wrist_flex_r	wrist_dev_r	arm_flex_l	arm_add_l	arm_rot_l	elbow_flex_l	pro_sup_l	wrist_flex_l	wrist_dev_l
2.12	-5.807758536010751	-16.81421181749604	-73.66697710155502	0	0.9399999998679526	0	44.841421948904	-10.04147831249994	0	59.91366599285195	1.045690738515424	-5.006840773206035	0	0	44.841421948904	-10.04147831249994	0	59.91366599285195	1.045690738515424	-5.006840773206035	0	0	-45.65419730977131	19.9750788802139	-6.812892089397117	46.51175894069419	-8.205197693969462	0.8041404496008561	29.31011673325913	1.457887704705387	0	0	0	-11.76096959951004	0	88.5689807706015	1.457887704705387	0	0
2.13	-5.320053582882589	-15.90955110692514	-73.49910250810839	0	0.9399999998679526	0	44.84268527666389	-10.04068958583774	0	59.91435281462162	1.045702725816679	-5.006685272668695	0	0	44.84268527666389	-10.04068958583774	0	59.91435281462162	1.045702725816679	-5.006685272668695	0	0	-43.02389989023141	18.98112655857109	-8.045844920447534	44.37112083321701	-8.890599581553262	1.292641369194723	31.44576014619938	1.448976480559137	0	0	0	-11.77671141615266	0	88.57772665773366	1.448976480559137	0	0
2.14	-4.887951437796128	-14.98558363473508	-73.41593189675065	0	0.9399999998679526	0	44.84417455976554	-10.03977544593766	0	59.91516429880134	1.045716888887443	-5.006506052132565	0	0	44.84417455976554	-10.03977544593766	0	59.91516429880134	1.045716888887443	-5.006506052132565	0	0	-40.50244327013234	17.91671836487179	-9.054559439668681	42.23447890832086	-9.506443499986089	1.467778891702433	33.54757669166726	1.438440496877883	0	0	0	-11.79536090362104	0	88.5880671600339	1.438440496877883	0	0
2.15	-4.426019142743502	-14.00969214285544	-73.52015176249465	0	0.9399999998679526	0	44.84577608421344	-10.03881187583072	0	59.91603870810376	1.04573215020878	-5.006318411494264	0	0	44.84577608421344	-10.03881187583072	0	59.91603870810376	1.04573215020878	-5.006318411494264	0	0	-38.89222139221709	16.89801067938857	-9.36480670032911	41.01945367254893	-10.39972085119686	1.508540474100103	35.84178110707366	1.427072364563053	0	0	0	-11.81552915015676	0	88.59922437282889	1.427072364563053	0	0
2.16	-3.927480711654086	-12.89012965057196	-73.49241819548004	0	0.9399999998679526	0	44.84585010808949	-10.03874665858914	0	59.91607033189988	1.045732702148145	-5.006304557912293	0	0	44.84585010808949	-10.03874665858914	0	59.91607033189988	1.045732702148145	-5.006304557912293	0	0	-36.45091515257516	15.5821753236071	-9.946034508364617	38.81177559855301	-11.21750355093995	1.321678924273366	38.39809519591113	1.426596006171882	0	0	0	-11.81631131273915	0	88.5996918913047	1.426596006171882	0	0
2.17	-3.624899851446586	-11.99572202183653	-73.93870942778344	0	0.9399999998679526	0	44.84591546436534	-10.03868922164861	0	59.91609828571015	1.045733190034172	-5.006292366230023	0	0	44.84591546436534	-10.03868922164861	0	59.91609828571015	1.045733190034172	-5.006292366230023	0	0	-34.35572860536582	14.35849007617894	-10.27767518956917	36.46071874648139	-12.10687885254084	1.649224851017943	41.34389659744178	1.426175192196062	0	0	0	-11.81700257451883	0	88.60010489612822	1.426175192196062	0	0
2.18	-3.406141923667683	-11.27407583529389	-74.58957780268214	0	0.9399999998679526	0	44.84762835890358	-10.03767186234041	0	59.91703223861852	1.045749490587482	-5.006095171414911	0	0	44.84762835890358	-10.03767186234041	0	59.91703223861852	1.045749490587482	-5.006095171414911	0	0	-32.41028808295282	13.14314806672097	-10.40862418350276	33.85484635724866	-13.15241980270258	2.068741666379045	44.61301467948103	1.413992427473926	0	0	0	-11.83864391372053	0	88.61206162774609	1.413992427473926	0	0
2.19	-3.184372108100256	-10.54999204585872	-75.23714925711258	0	0.9399999998679526	0	44.84939726540178	-10.03663907339603	0	59.91799739338751	1.045766335715992	-5.005896122940798	0	0	44.84939726540178	-10.03663907339603	0	59.91799739338751	1.045766335715992	-5.005896122940798	0	0	-30.53304341643582	11.91917627475751	-10.15620588419418	31.17159373145039	-14.40633390209038	1.956039681716944	47.97652849743059	1.401374576019362	0	0	0	-11.86110246865158	0	88.62444537489161	1.401374576019362	0	0
2.2	-2.905580227573998	-9.731280212614662	-75.895869566087	0	0.9399999998679526	0	44.8494596050123	-10.03658606841665	0	59.91802406772837	1.045766801271066	-5.005884996464665	0	0	44.8494596050123	-10.03658606841665	0	59.91802406772837	1.045766801271066	-5.005884996464665	0	0	-28.63553766076763	10.67120258182973	-9.950285698965708	28.81555438214637	-15.48194672233813	2.125962608136902	51.23839024065475	1.400970949151935	0	0	0	-11.86176799088406	0	88.62484151169102	1.400970949151935	0	0
2.21	-2.643346750598483	-8.889152248899412	-76.58391475955499	0	0.9399999998679526	0	44.85088158064077	-10.03575999749776	0	59.91879614050328	1.045780276483053	-5.005726132317149	0	0	44.85088158064077	-10.03575999749776	0	59.91879614050328	1.045780276483053	-5.005726132317149	0	0	-26.79567818848026	9.534259585146961	-9.73231575585026	26.52447527618015	-16.70763865188302	2.687554323793917	54.85340503547484	1.39082247822712	0	0	0	-11.8798359498146	0	88.63480169387455	1.39082247822712	0	0
2.22	-2.373153897150149	-8.053171501680346	-77.2435635086126	0	0.9399999998679526	0	44.85229607085871	-10.03495570238478	0	59.9195670052926	1.045793730611714	-5.005572514963156	0	0	44.85229607085871	-10.03495570238478	0	59.9195670052926	1.045793730611714	-5.005572514963156	0	0	-25.16406819205281	8.527066749540953	-9.529975652025877	24.30335055988903	-18.17010522487277	3.424355029809356	58.76851853629526	1.380688679426599	0	0	0	-11.89792573691489	0	88.64474747738809	1.380688679426599	0	0
2.23	-2.117180916241395	-7.263813564331556	-77.93050546178766	0	0.9399999998679526	0	44.85236931563387	-10.03489540069484	0	59.91959846333081	1.045794279658057	-5.005559987088524	0	0	44.85236931563387	-10.03489540069484	0	59.91959846333081	1.045794279658057	-5.005559987088524	0	0	-23.41592225743268	7.539458156844791	-9.319793418407873	21.48266650755871	-19.4244495067772	3.376220822876235	61.77376218119009	1.380211610513382	0	0	0	-11.89871569715359	0	88.64521569352995	1.380211610513382	0	0
2.24	-1.882543162266745	-6.479689746896227	-78.92144482902195	0	0.9399999998679526	0	44.85443263355789	-10.0337533362328	0	59.92072659536929	1.045813969276526	-5.005343896235301	0	0	44.85443263355789	-10.0337533362328	0	59.92072659536929	1.045813969276526	-5.005343896235301	0	0	-21.57497803484203	6.386670761719399	-8.572386836342405	18.12105902769256	-21.20902632497145	3.119550733554926	66.40510975754052	1.36536494685778	0	0	0	-11.92529580842326	0	88.6597869047142	1.36536494685778	0	0
2.25	-1.680538644170612	-5.748822321598197	-79.76428121157005	0	0.9399999998679526	0	44.85667507474502	-10.03250255920417	0	59.9219350206715	1.045835060276814	-5.00510711901564	0	0	44.85667507474502	-10.03250255920417	0	59.9219350206715	1.045835060276814	-5.00510711901564	0	0	-19.91923607563271	5.463736178999687	-8.144321555379314	14.73282911689747	-23.12396226497646	2.873572426101926	71.41016767974773	1.349271889130122	0	0	0	-11.9540454465843	0	88.67558138390638	1.349271889130122	0	0
2.26	-1.443275281704898	-5.030864421394674	-80.17699466030588	0	0.9399999998679526	0	44.85801979846918	-10.03177532025501	0	59.92266645512803	1.045847826216343	-5.004970575546256	0	0	44.85801979846918	-10.03177532025501	0	59.92266645512803	1.045847826216343	-5.004970575546256	0	0	-18.22000139397929	4.681173480870258	-8.093104803901634	11.81183140610359	-25.12122343935661	2.951543507950496	76.12384264755586	1.339558386271894	0	0	0	-11.97148035669669	0	88.68511467166816	1.339558386271894	0	0
2.27	-1.276354370774566	-4.493996525075342	-80.68315818713739	0	0.9399999998679526	0	44.85890599797277	-10.0312878726802	0	59.92314244052109	1.045856133728643	-5.004878645559847	0	0	44.85890599797277	-10.0312878726802	0	59.92314244052109	1.045856133728643	-5.004878645559847	0	0	-16.71785668287459	3.99180605613531	-7.620610684981561	9.4069343316903	-27.33590629004178	3.213742044049934	80.72070151951924	1.333180438417482	0	0	0	-11.98289711110509	0	88.69137428841684	1.333180438417482	0	0
